<?xml version="1.0" encoding="utf-8"?> <!-- Generator: IcoMoon.io --> <!DOCTYPE svg PUBLIC "-//W3C//DTD SVG 1.1//EN" "http://www.w3.org/Graphics/SVG/1.1/DTD/svg11.dtd"> <svg width="64" height="64" viewBox="0 0 64 64" xmlns="http://www.w3.org/2000/svg" xmlns:xlink="http://www.w3.org/1999/xlink" fill="#807eba"><g><path d="M 45.917,42.086L 37.091,32l 8.826-10.086c 1.501-1.501, 1.501-3.933,0-5.43c-1.501-1.498-3.933-1.498-5.43,0L 32,26.182 l-8.483-9.696c-1.501-1.501-3.933-1.501-5.43,0c-1.498,1.501-1.498,3.933,0,5.43L 26.909,32l-8.826,10.086 c-1.498,1.501-1.498,3.926,0,5.424c 1.501,1.501, 3.933,1.501, 5.43,0L 32,37.818l 8.483,9.693c 1.501,1.501, 3.933,1.501, 5.43,0 S 47.414,43.587, 45.917,42.086z"></path></g></svg>