<?xml version="1.0" encoding="utf-8"?> <!-- Generator: IcoMoon.io --> <!DOCTYPE svg PUBLIC "-//W3C//DTD SVG 1.1//EN" "http://www.w3.org/Graphics/SVG/1.1/DTD/svg11.dtd"> <svg width="64" height="64" viewBox="0 0 64 64" xmlns="http://www.w3.org/2000/svg" xmlns:xlink="http://www.w3.org/1999/xlink" fill="#807eba"><g><path d="M 5.101,16.915c 1.562,0.842, 23.197,12.461, 24.003,12.893C 29.907,30.24, 30.95,30.448, 32,30.448c 1.053,0, 2.096-0.208, 2.899-0.643 c 0.806-0.432, 22.438-12.051, 24-12.893C 60.464,16.074, 61.942,13.44, 59.072,13.44L 4.931,13.44 C 2.061,13.44, 3.536,16.074, 5.101,16.915z M 59.562,23.315 c-1.776,0.928-23.574,12.323-24.662,12.893S 33.053,36.851, 32,36.851c-1.050,0-1.808-0.074-2.896-0.643S 6.214,24.24, 4.442,23.315 C 3.19,22.662, 3.2,23.427, 3.2,24.016c0,0.589,0,23.472,0,23.472C 3.2,48.832, 4.989,50.56, 6.374,50.56l 51.254,0 c 1.389,0, 3.171-1.728, 3.171-3.069 c0,0,0-22.883,0-23.472C 60.8,23.427, 60.813,22.662, 59.562,23.315z"></path></g></svg>