<?xml version="1.0" encoding="utf-8"?> <!-- Generator: IcoMoon.io --> <!DOCTYPE svg PUBLIC "-//W3C//DTD SVG 1.1//EN" "http://www.w3.org/Graphics/SVG/1.1/DTD/svg11.dtd"> <svg width="64" height="64" viewBox="0 0 64 64" xmlns="http://www.w3.org/2000/svg" xmlns:xlink="http://www.w3.org/1999/xlink" fill="#807eba"><g><path d="M 52.995,11.002c-4.614-4.618-8.080-3.926-8.080-3.926L 28.746,23.245L 10.272,41.718L 7.040,56.96l 15.242-3.232l 18.474-18.474l 16.166-16.166 C 56.922,19.088, 57.616,15.622, 52.995,11.002z M 21.373,51.894l-5.194,1.12c-0.502-0.938-1.107-1.875-2.211-2.982 c-1.104-1.104-2.045-1.706-2.982-2.208l 1.123-5.197l 1.501-1.501c0,0, 2.829,0.058, 6.019,3.248c 3.194,3.194, 3.251,6.022, 3.251,6.022 L 21.373,51.894z"></path></g></svg>