<?xml version="1.0" encoding="utf-8"?> <!-- Generator: IcoMoon.io --> <!DOCTYPE svg PUBLIC "-//W3C//DTD SVG 1.1//EN" "http://www.w3.org/Graphics/SVG/1.1/DTD/svg11.dtd"> <svg width="64" height="64" viewBox="0 0 64 64" xmlns="http://www.w3.org/2000/svg" xmlns:xlink="http://www.w3.org/1999/xlink" fill="#807eba"><g><path d="M 47.424,46.234c-7.888-2.874-10.41-5.299-10.41-10.493c0-3.117, 2.41-2.099, 3.466-7.808c 0.438-2.368, 2.566-0.038, 2.976-5.443 c0-2.154-1.162-2.691-1.162-2.691s 0.592-3.19, 0.822-5.642C 43.398,11.098, 41.35,3.2, 30.4,3.2C 19.453,3.2, 17.398,11.098, 17.686,14.157 C 17.917,16.608, 18.509,19.798, 18.509,19.798S 17.344,20.333, 17.344,22.49c 0.406,5.405, 2.534,3.075, 2.973,5.443 c 1.059,5.709, 3.469,4.691, 3.469,7.808c0,5.194-2.522,7.619-10.41,10.493c-7.917,2.88-13.056,5.821-13.056,7.827c0,2.003,0,6.736,0,6.736 l 30.080,0 l 30.080,0 c0,0,0-4.733,0-6.736C 60.48,52.058, 55.338,49.117, 47.424,46.234z"></path></g></svg>