<?xml version="1.0" encoding="utf-8"?> <!-- Generator: IcoMoon.io --> <!DOCTYPE svg PUBLIC "-//W3C//DTD SVG 1.1//EN" "http://www.w3.org/Graphics/SVG/1.1/DTD/svg11.dtd"> <svg width="64" height="64" viewBox="0 0 64 64" xmlns="http://www.w3.org/2000/svg" xmlns:xlink="http://www.w3.org/1999/xlink" fill="#807eba"><g><path d="M 62.438,57.542L 33.933,7.523C 33.539,6.832, 32.8,6.406, 32,6.406c-0.8,0-1.536,0.426-1.933,1.117L 1.565,57.542 c-0.387,0.678-0.381,1.507, 0.016,2.179s 1.126,1.085, 1.914,1.085l 57.008,0 c 0.781,0, 1.514-0.413, 1.914-1.085 C 62.813,59.050, 62.819,58.221, 62.438,57.542z M 35.52,54.406L 28.48,54.406 l0-6.4 l 7.040,0 L 35.52,54.406 z M 35.52,43.206L 28.48,43.206 l0-19.2 l 7.040,0 L 35.52,43.206 z"></path></g></svg>